<?xml version="1.0" encoding="utf-8"?>
<!-- Generator: Adobe Illustrator 22.0.0, SVG Export Plug-In . SVG Version: 6.00 Build 0)  -->
<svg version="1.1" id="a" xmlns="http://www.w3.org/2000/svg" xmlns:xlink="http://www.w3.org/1999/xlink" x="0px" y="0px"
	 viewBox="0 0 219.3 93.9" style="enable-background:new 0 0 219.3 93.9;" xml:space="preserve">
<style type="text/css">
	.st0{fill:#068091;}
	.st1{fill:none;}
</style>
<g>
	<path class="st0" d="M85.6,62.5v8.1h-1.1v-8.1H85.6z"/>
	<path class="st0" d="M87.5,66.4c0-0.6,0-1.1,0-1.6h0.9l0.1,1h0c0.3-0.5,1-1.1,1.9-1.1c0.8,0,2,0.5,2,2.5v3.5h-1v-3.3
		c0-0.9-0.4-1.7-1.3-1.7c-0.7,0-1.2,0.5-1.4,1.1c0,0.1-0.1,0.3-0.1,0.5v3.5h-1.1C87.5,70.6,87.5,66.4,87.5,66.4z"/>
	<path class="st0" d="M95.4,63.2v1.7h1.5v0.8h-1.5v3.1c0,0.7,0.2,1.1,0.8,1.1c0.3,0,0.5,0,0.6-0.1l0,0.8c-0.2,0.1-0.5,0.1-0.9,0.1
		c-0.5,0-0.9-0.2-1.1-0.4c-0.3-0.3-0.4-0.8-0.4-1.5v-3.2h-0.9v-0.8h0.9v-1.4C94.4,63.4,95.4,63.2,95.4,63.2z"/>
	<path class="st0" d="M98.6,67.9c0,1.4,0.9,2,2,2c0.8,0,1.2-0.1,1.6-0.3l0.2,0.8c-0.4,0.2-1,0.4-1.9,0.4c-1.8,0-2.9-1.2-2.9-2.9
		c0-1.8,1-3.1,2.7-3.1c1.9,0,2.4,1.7,2.4,2.7c0,0.2,0,0.4,0,0.5L98.6,67.9L98.6,67.9z M101.7,67.2c0-0.7-0.3-1.7-1.5-1.7
		c-1.1,0-1.5,1-1.6,1.7C98.6,67.2,101.7,67.2,101.7,67.2z"/>
	<path class="st0" d="M104,66.6c0-0.7,0-1.3,0-1.8h0.9l0,1.1h0c0.3-0.8,0.9-1.3,1.6-1.3c0.1,0,0.2,0,0.3,0v1c-0.1,0-0.2,0-0.4,0
		c-0.7,0-1.3,0.6-1.4,1.3c0,0.1,0,0.3,0,0.5v3.1H104V66.6L104,66.6z"/>
	<path class="st0" d="M108,66.4c0-0.6,0-1.1,0-1.6h0.9l0.1,1h0c0.3-0.5,1-1.1,1.9-1.1c0.8,0,2,0.5,2,2.5v3.5h-1v-3.3
		c0-0.9-0.4-1.7-1.3-1.7c-0.7,0-1.2,0.5-1.4,1.1c0,0.1-0.1,0.3-0.1,0.5v3.5H108C108,70.6,108,66.4,108,66.4z"/>
	<path class="st0" d="M117.9,70.6l-0.1-0.7h0c-0.3,0.5-0.9,0.9-1.8,0.9c-1.2,0-1.8-0.8-1.8-1.7c0-1.4,1.2-2.2,3.5-2.2v-0.1
		c0-0.5-0.1-1.3-1.3-1.3c-0.5,0-1.1,0.2-1.5,0.4l-0.2-0.7c0.5-0.3,1.2-0.5,1.9-0.5c1.8,0,2.2,1.2,2.2,2.4v2.2c0,0.5,0,1,0.1,1.4
		L117.9,70.6L117.9,70.6z M117.7,67.7c-1.1,0-2.4,0.2-2.4,1.3c0,0.7,0.5,1,1,1c0.8,0,1.2-0.5,1.4-1c0-0.1,0.1-0.2,0.1-0.3
		L117.7,67.7L117.7,67.7z"/>
	<path class="st0" d="M121.7,63.2v1.7h1.5v0.8h-1.5v3.1c0,0.7,0.2,1.1,0.8,1.1c0.3,0,0.5,0,0.6-0.1l0,0.8c-0.2,0.1-0.5,0.1-0.9,0.1
		c-0.5,0-0.9-0.2-1.1-0.4c-0.3-0.3-0.4-0.8-0.4-1.5v-3.2h-0.9v-0.8h0.9v-1.4C120.7,63.4,121.7,63.2,121.7,63.2z"/>
	<path class="st0" d="M125.6,63.2c0,0.4-0.3,0.7-0.7,0.7c-0.4,0-0.6-0.3-0.6-0.7c0-0.4,0.3-0.7,0.7-0.7
		C125.3,62.5,125.6,62.8,125.6,63.2L125.6,63.2z M124.4,70.6v-5.8h1.1v5.8H124.4z"/>
	<path class="st0" d="M132.5,67.7c0,2.1-1.5,3.1-2.9,3.1c-1.6,0-2.8-1.1-2.8-3c0-1.9,1.3-3.1,2.9-3.1
		C131.3,64.7,132.5,65.9,132.5,67.7z M127.9,67.7c0,1.3,0.7,2.2,1.8,2.2c1,0,1.8-0.9,1.8-2.3c0-1-0.5-2.2-1.7-2.2
		C128.4,65.5,127.9,66.6,127.9,67.7L127.9,67.7z"/>
	<path class="st0" d="M133.8,66.4c0-0.6,0-1.1,0-1.6h0.9l0.1,1h0c0.3-0.5,1-1.1,1.9-1.1c0.8,0,2,0.5,2,2.5v3.5h-1v-3.3
		c0-0.9-0.4-1.7-1.3-1.7c-0.7,0-1.2,0.5-1.4,1.1c0,0.1-0.1,0.3-0.1,0.5v3.5h-1.1V66.4z"/>
	<path class="st0" d="M143.7,70.6l-0.1-0.7h0c-0.3,0.5-0.9,0.9-1.8,0.9c-1.2,0-1.8-0.8-1.8-1.7c0-1.4,1.2-2.2,3.5-2.2v-0.1
		c0-0.5-0.1-1.3-1.3-1.3c-0.5,0-1.1,0.2-1.5,0.4l-0.2-0.7c0.5-0.3,1.2-0.5,1.9-0.5c1.8,0,2.2,1.2,2.2,2.4v2.2c0,0.5,0,1,0.1,1.4
		L143.7,70.6L143.7,70.6z M143.5,67.7c-1.1,0-2.4,0.2-2.4,1.3c0,0.7,0.5,1,1,1c0.8,0,1.2-0.5,1.4-1c0-0.1,0.1-0.2,0.1-0.3
		L143.5,67.7L143.5,67.7z"/>
	<path class="st0" d="M146.2,62.1h1.1v8.5h-1.1V62.1z"/>
	<path class="st0" d="M97.5,82.4c-0.4,0.2-1.2,0.4-2.1,0.4c-2.3,0-4-1.4-4-4.1c0-2.5,1.7-4.2,4.2-4.2c1,0,1.6,0.2,1.9,0.4l-0.3,0.8
		c-0.4-0.2-1-0.3-1.6-0.3c-1.9,0-3.2,1.2-3.2,3.3c0,2,1.1,3.2,3.1,3.2c0.6,0,1.3-0.1,1.7-0.3L97.5,82.4L97.5,82.4z"/>
	<path class="st0" d="M103.9,79.7c0,2.1-1.5,3.1-2.9,3.1c-1.6,0-2.8-1.1-2.8-3c0-1.9,1.3-3.1,2.9-3.1
		C102.8,76.7,103.9,77.9,103.9,79.7z M99.3,79.7c0,1.3,0.7,2.2,1.8,2.2c1,0,1.8-0.9,1.8-2.3c0-1-0.5-2.2-1.7-2.2
		C99.9,77.5,99.3,78.6,99.3,79.7L99.3,79.7z"/>
	<path class="st0" d="M105.2,78.4c0-0.6,0-1.1,0-1.6h0.9l0.1,1h0c0.3-0.5,1-1.1,1.9-1.1c0.8,0,2,0.5,2,2.5v3.5h-1v-3.3
		c0-0.9-0.4-1.7-1.3-1.7c-0.7,0-1.2,0.5-1.4,1.1c0,0.1-0.1,0.3-0.1,0.5v3.5h-1.1C105.2,82.6,105.2,78.4,105.2,78.4z"/>
	<path class="st0" d="M112,82.6v-5h-0.8v-0.8h0.8v-0.3c0-0.8,0.2-1.6,0.7-2c0.4-0.4,0.9-0.5,1.4-0.5c0.4,0,0.7,0.1,0.9,0.2l-0.1,0.8
		c-0.2-0.1-0.4-0.1-0.7-0.1c-0.9,0-1.1,0.8-1.1,1.7v0.3h1.4v0.8h-1.4v5L112,82.6L112,82.6z"/>
	<path class="st0" d="M115.8,79.9c0,1.4,0.9,2,2,2c0.8,0,1.2-0.1,1.6-0.3l0.2,0.8c-0.4,0.2-1,0.4-1.9,0.4c-1.8,0-2.9-1.2-2.9-2.9
		c0-1.8,1-3.1,2.7-3.1c1.9,0,2.4,1.7,2.4,2.7c0,0.2,0,0.4,0,0.5L115.8,79.9L115.8,79.9z M118.9,79.2c0-0.7-0.3-1.7-1.5-1.7
		c-1.1,0-1.5,1-1.6,1.7C115.9,79.2,118.9,79.2,118.9,79.2z"/>
	<path class="st0" d="M121.3,78.6c0-0.7,0-1.3,0-1.8h0.9l0,1.1h0c0.3-0.8,0.9-1.3,1.6-1.3c0.1,0,0.2,0,0.3,0v1c-0.1,0-0.2,0-0.4,0
		c-0.7,0-1.3,0.6-1.4,1.3c0,0.1,0,0.3,0,0.5v3.1h-1.1V78.6L121.3,78.6z"/>
	<path class="st0" d="M125.7,79.9c0,1.4,0.9,2,2,2c0.8,0,1.2-0.1,1.6-0.3l0.2,0.8c-0.4,0.2-1,0.4-1.9,0.4c-1.8,0-2.9-1.2-2.9-2.9
		c0-1.8,1-3.1,2.7-3.1c1.9,0,2.4,1.7,2.4,2.7c0,0.2,0,0.4,0,0.5L125.7,79.9L125.7,79.9z M128.8,79.2c0-0.7-0.3-1.7-1.5-1.7
		c-1.1,0-1.5,1-1.6,1.7H128.8z"/>
	<path class="st0" d="M131.1,78.4c0-0.6,0-1.1,0-1.6h0.9l0.1,1h0c0.3-0.5,1-1.1,1.9-1.1c0.8,0,2,0.5,2,2.5v3.5h-1v-3.3
		c0-0.9-0.4-1.7-1.3-1.7c-0.7,0-1.2,0.5-1.4,1.1c0,0.1-0.1,0.3-0.1,0.5v3.5h-1.1V78.4z"/>
	<path class="st0" d="M141.9,82.4c-0.3,0.1-0.9,0.3-1.7,0.3c-1.7,0-2.9-1.2-2.9-3c0-1.8,1.2-3.1,3.1-3.1c0.6,0,1.2,0.2,1.5,0.3
		l-0.2,0.8c-0.3-0.1-0.7-0.3-1.2-0.3c-1.3,0-2,1-2,2.2c0,1.3,0.9,2.2,2,2.2c0.6,0,1-0.1,1.3-0.3L141.9,82.4L141.9,82.4z"/>
	<path class="st0" d="M143.6,79.9c0,1.4,0.9,2,2,2c0.8,0,1.2-0.1,1.6-0.3l0.2,0.8c-0.4,0.2-1,0.4-1.9,0.4c-1.8,0-2.9-1.2-2.9-2.9
		c0-1.8,1-3.1,2.7-3.1c1.9,0,2.4,1.7,2.4,2.7c0,0.2,0,0.4,0,0.5L143.6,79.9L143.6,79.9z M146.7,79.2c0-0.7-0.3-1.7-1.5-1.7
		c-1.1,0-1.5,1-1.6,1.7H146.7z"/>
</g>
<g>
	<path class="st0" d="M57.8,28.4c1.3-0.2,3.1-0.4,5.3-0.4c2.7,0,4.7,0.6,6,1.8c1.2,1,1.9,2.6,1.9,4.5c0,1.9-0.6,3.4-1.6,4.5
		c-1.5,1.5-3.8,2.3-6.5,2.3c-0.8,0-1.6,0-2.2-0.2v8.5h-2.8L57.8,28.4L57.8,28.4z M60.6,38.7c0.6,0.2,1.4,0.2,2.3,0.2
		c3.3,0,5.3-1.6,5.3-4.6c0-2.8-2-4.2-5-4.2c-1.2,0-2.1,0.1-2.6,0.2V38.7L60.6,38.7z"/>
	<path class="st0" d="M75.4,42.8l-2.2,6.7h-2.8l7.2-21.3h3.3l7.3,21.3h-2.9L83,42.8H75.4z M82.4,40.6l-2.1-6.1
		c-0.5-1.4-0.8-2.7-1.1-3.9h-0.1c-0.3,1.3-0.7,2.6-1.1,3.9L76,40.6L82.4,40.6L82.4,40.6z"/>
	<path class="st0" d="M94.8,42.8l-2.2,6.7h-2.8l7.2-21.3h3.3l7.3,21.3h-2.9l-2.3-6.7C102.3,42.8,94.7,42.8,94.8,42.8z M101.7,40.6
		l-2.1-6.1c-0.5-1.4-0.8-2.7-1.1-3.9h-0.1c-0.3,1.3-0.7,2.6-1.1,3.9l-2.1,6.2L101.7,40.6L101.7,40.6z"/>
	<path class="st0" d="M128.5,40.1c-0.2-3-0.3-6.5-0.3-9.2h-0.1c-0.7,2.5-1.6,5.2-2.7,8.1l-3.8,10.3h-2.1l-3.4-10.1
		c-1-3-1.9-5.8-2.5-8.3h-0.1c-0.1,2.7-0.2,6.2-0.4,9.4l-0.6,9.1h-2.6l1.5-21.3h3.5l3.6,10.3c0.9,2.6,1.6,5,2.1,7.2h0.1
		c0.5-2.1,1.3-4.5,2.2-7.2l3.8-10.3h3.5l1.3,21.3H129L128.5,40.1L128.5,40.1z"/>
	<path class="st0" d="M135.5,46.1c1.2,0.8,3,1.4,4.9,1.4c2.8,0,4.5-1.5,4.5-3.6c0-2-1.1-3.1-4-4.2c-3.5-1.2-5.6-3-5.6-6
		c0-3.3,2.7-5.8,6.9-5.8c2.2,0,3.8,0.5,4.7,1l-0.8,2.2c-0.7-0.4-2.1-1-4-1c-2.9,0-4,1.7-4,3.2c0,2,1.3,3,4.2,4.1
		c3.6,1.4,5.4,3.1,5.4,6.3c0,3.3-2.4,6.1-7.5,6.1c-2.1,0-4.3-0.6-5.4-1.4L135.5,46.1L135.5,46.1z"/>
</g>
<g>
	<g>
		<ellipse class="st0" cx="201.6" cy="30.2" rx="11.2" ry="10.5"/>
		<path class="st0" d="M201.6,41.2c-6.5,0-11.7-4.9-11.7-11s5.3-11,11.7-11s11.7,4.9,11.7,11S208.1,41.2,201.6,41.2z M201.6,20.2
			c-5.9,0-10.7,4.5-10.7,10s4.8,10,10.7,10s10.7-4.5,10.7-10S207.5,20.2,201.6,20.2z"/>
	</g>
	<g>
		<circle class="st0" cx="178.5" cy="11.2" r="4.6"/>
		<path class="st0" d="M178.5,16.4c-2.8,0-5.1-2.3-5.1-5.1s2.3-5.1,5.1-5.1s5.1,2.3,5.1,5.1S181.3,16.4,178.5,16.4z M178.5,7.1
			c-2.3,0-4.1,1.9-4.1,4.1s1.9,4.1,4.1,4.1s4.1-1.9,4.1-4.1S180.8,7.1,178.5,7.1z"/>
	</g>
	<g>
		<path class="st0" d="M174.5,46.4c0,4.4-3.6,8-8,8s-8-3.6-8-8s3.6-8,8-8S174.5,42,174.5,46.4z"/>
		<path class="st0" d="M166.5,55c-4.7,0-8.5-3.8-8.5-8.5s3.8-8.5,8.5-8.5s8.5,3.8,8.5,8.5S171.2,55,166.5,55z M166.5,38.9
			c-4.1,0-7.5,3.4-7.5,7.5s3.4,7.5,7.5,7.5s7.5-3.4,7.5-7.5S170.6,38.9,166.5,38.9z"/>
	</g>
	<g>
		<circle class="st0" cx="187.2" cy="77.2" r="6.6"/>
		<path class="st0" d="M187.2,84.2c-3.9,0-7.1-3.2-7.1-7.1s3.2-7.1,7.1-7.1s7.1,3.2,7.1,7.1S191.1,84.2,187.2,84.2z M187.2,71.1
			c-3.3,0-6.1,2.7-6.1,6.1s2.7,6.1,6.1,6.1s6.1-2.7,6.1-6.1S190.5,71.1,187.2,71.1z"/>
	</g>
	<g>
		<line class="st1" x1="198.6" y1="40.3" x2="189.1" y2="70.9"/>
		<rect x="177.8" y="55.1" transform="matrix(0.295 -0.9555 0.9555 0.295 83.5153 224.4241)" class="st0" width="32" height="1"/>
	</g>
	<g>
		<line class="st1" x1="192.3" y1="36.2" x2="174.2" y2="44.2"/>
		<rect x="173.3" y="39.7" transform="matrix(0.9145 -0.4045 0.4045 0.9145 -0.598 77.5649)" class="st0" width="19.8" height="1"/>
	</g>
	<g>
		<line class="st1" x1="168.1" y1="38.6" x2="176.8" y2="15.5"/>
		
			<rect x="160.1" y="26.5" transform="matrix(0.3526 -0.9358 0.9358 0.3526 86.3353 178.8942)" class="st0" width="24.6" height="1"/>
	</g>
	<g>
		<line class="st1" x1="182.2" y1="14" x2="192.8" y2="23.6"/>
		<rect x="187" y="11.7" transform="matrix(0.6732 -0.7395 0.7395 0.6732 47.3764 144.8166)" class="st0" width="1" height="14.3"/>
	</g>
</g>
</svg>
