<svg width="240" height="143" viewBox="0 0 240 143" fill="none" xmlns="http://www.w3.org/2000/svg">
<g clip-path="url(#clip0_49_59)">
<path d="M80.2554 113.553C77.9569 113.553 75.85 114.515 74.3176 116.055C72.7853 114.515 70.6784 113.553 68.3799 113.553H61.4844V118.172H69.7207C71.0614 118.172 72.0191 119.135 72.0191 120.482V121.829V142.23H76.6161V121.829V120.482C76.6161 119.135 77.5738 118.172 78.9146 118.172H87.1508V113.553H80.2554ZM135.994 142.423H140.782V111.629H135.994V142.423ZM154.19 143C159.362 143 163.384 140.498 163.384 135.879C163.384 131.067 158.978 129.913 155.339 129.143C152.658 128.565 150.551 127.988 150.551 126.256C150.551 124.716 152.275 123.946 154.573 123.946C156.871 123.946 158.787 124.908 160.319 126.063L162.809 122.599C160.894 121.059 158.021 119.712 154.381 119.712C149.593 119.712 145.571 122.022 145.571 126.641C145.571 131.452 149.976 132.607 153.615 133.569C156.297 134.147 158.404 134.724 158.404 136.456C158.404 137.996 156.488 138.958 153.998 138.958C151.317 138.958 149.018 137.996 147.486 136.264L144.996 139.728C147.103 141.46 150.168 143 154.19 143ZM119.713 143C126.034 143 131.205 137.804 131.205 131.452C131.205 125.101 126.034 119.904 119.713 119.904C119.138 119.904 116.073 119.904 113.2 121.829C112.243 122.406 111.86 122.791 111.285 123.176L110.136 123.946C109.178 124.524 107.837 124.908 106.305 124.908C104.773 124.908 103.432 124.524 102.474 123.946L101.516 122.984C100.942 122.599 100.559 122.406 99.6009 121.637C96.7278 119.712 93.6632 119.712 93.0886 119.712C86.7677 119.712 81.5962 124.908 81.5962 131.26C81.5962 137.611 86.7677 142.808 93.0886 142.808C93.6632 142.808 96.7278 142.808 99.6009 140.883C100.559 140.306 100.942 139.921 101.516 139.536L102.666 138.766C103.623 138.188 104.964 137.803 106.496 137.803C108.029 137.803 109.369 138.188 110.327 138.766L111.476 139.536C112.051 139.921 112.434 140.306 113.392 140.883C115.882 142.808 118.947 143 119.713 143ZM93.2801 124.331C93.2801 124.331 95.3871 124.331 97.1109 125.486C98.0686 126.063 98.4517 126.448 99.0263 126.833L100.176 127.603C101.899 128.758 104.198 129.335 106.496 129.335C108.986 129.335 111.093 128.758 112.817 127.603L113.966 126.833C114.541 126.448 114.924 126.256 115.882 125.486C117.606 124.331 119.713 124.331 119.713 124.331C123.543 124.331 126.608 127.41 126.608 131.26C126.608 135.109 123.543 138.188 119.713 138.188C119.713 138.188 117.606 138.188 115.882 137.034C114.924 136.456 114.541 136.071 113.966 135.686L112.817 134.917C111.093 133.762 108.795 133.184 106.496 133.184C104.006 133.184 101.899 133.762 100.176 134.917L99.0263 135.686C98.4517 136.071 98.0686 136.264 97.1109 137.034C95.3871 138.188 93.2801 138.188 93.2801 138.188C89.4493 138.188 86.3847 135.109 86.3847 131.26C86.1931 127.603 89.2578 124.331 93.2801 124.331ZM72.0191 106.047C70.4868 106.047 68.9545 105.662 67.4222 105.085C63.7829 103.545 61.2929 100.273 60.5267 96.424C60.3352 95.6541 60.1436 93.7295 60.7183 91.6124C61.676 87.9556 64.166 85.0686 67.8053 83.7214C71.253 82.3742 75.0838 82.9515 78.34 84.8762C79.6808 85.646 81.5962 86.2234 81.5962 86.2234C81.5962 86.2234 78.7231 89.8802 78.34 90.4576C74.7007 87.3782 71.6361 87.1857 69.5291 88.1481C67.4222 88.9179 65.8899 90.6501 65.3152 92.9596C64.9322 94.3069 65.1237 95.4616 65.1237 95.8466C65.5068 98.3486 67.0391 100.273 69.3376 101.236C71.4445 102.198 73.9346 101.813 76.0415 100.658C77.5738 99.8883 78.34 98.3486 78.34 98.3486L81.2131 102.583L80.4469 102.775C79.8723 103.16 79.2977 103.545 78.5315 104.122C76.6161 105.277 74.3176 106.047 72.0191 106.047ZM167.023 94.3069C167.023 87.9556 161.852 82.7591 155.531 82.7591C151.508 82.7591 149.21 84.8762 147.294 86.4159C147.294 84.2988 147.294 82.9515 147.294 82.9515H142.506C142.506 82.9515 142.889 104.315 142.123 105.47C142.698 105.47 147.103 105.47 147.486 105.47C146.911 104.507 146.911 97.3863 146.911 91.4199C147.294 91.2275 147.869 90.8425 148.444 90.6501L149.593 89.8802C150.168 89.4953 150.551 89.3028 151.508 88.533C153.232 87.3782 155.339 87.3782 155.339 87.3782C159.17 87.3782 162.235 90.4576 162.235 94.3069C162.235 94.3069 162.618 104.892 162.235 105.47C162.809 105.47 166.64 105.47 167.215 105.47C166.832 103.353 167.023 94.3069 167.023 94.3069ZM57.2705 94.3069C57.2705 87.9556 52.099 82.7591 45.7781 82.7591C41.7558 82.7591 39.4573 84.8762 37.5419 86.4159C37.5419 84.2988 37.5419 82.9515 37.5419 82.9515H32.7534C32.7534 82.9515 33.328 104.315 32.5618 105.47C32.7534 105.47 37.1588 105.47 37.7334 105.47C37.3504 105.47 37.3504 97.7712 37.3504 91.4199C37.7334 91.2275 38.3081 90.8425 38.6911 90.6501L39.8404 89.8802C40.415 89.4953 40.7981 89.3028 41.7558 88.533C43.4796 87.3782 45.5866 87.3782 45.5866 87.3782C49.4174 87.3782 52.482 90.4576 52.482 94.3069C52.482 94.3069 52.482 105.47 51.9074 105.47C52.2905 105.47 57.4621 105.47 57.6536 105.47C57.4621 105.47 57.2705 94.3069 57.2705 94.3069ZM109.369 94.3069C109.369 87.9556 104.198 82.7591 97.8771 82.7591C94.0463 82.7591 91.7478 84.6837 89.6409 86.4159C89.4493 78.14 90.2155 76.0229 90.2155 76.0229C90.2155 76.0229 85.0439 76.0229 84.4693 76.0229C85.2354 77.1777 85.427 103.353 84.2777 105.47C84.6608 105.47 89.4493 105.47 90.2155 105.47C89.8324 104.507 89.8324 97.9637 89.6409 91.4199C90.0239 91.2275 90.407 91.035 90.7901 90.6501L91.9393 89.8802C92.514 89.4953 92.897 89.3028 93.8547 88.533C95.5786 87.3782 97.6855 87.3782 97.6855 87.3782C101.516 87.3782 104.581 90.4576 104.581 94.3069C104.581 94.3069 104.581 101.813 104.198 105.47C105.156 105.47 109.561 105.47 109.944 105.47C109.37 105.47 109.369 94.3069 109.369 94.3069ZM137.909 105.47C137.526 105.47 133.887 105.47 133.504 105.47C133.695 105.277 133.695 103.93 133.695 102.005L132.546 102.775C131.971 103.16 131.588 103.353 130.63 104.122C127.949 105.855 125.076 106.047 124.31 106.047H124.118C117.797 106.047 112.626 100.851 112.626 94.4993C112.626 88.148 117.797 82.9515 124.118 82.9515C124.693 82.9515 127.757 82.9515 130.63 84.8762C131.588 85.4536 131.971 85.8385 132.546 86.2234L133.695 86.9933C133.695 84.8762 133.695 83.3365 133.695 83.3365H137.909C137.909 83.144 137.334 104.122 137.909 105.47ZM133.695 97.5787C133.695 95.4616 133.695 93.3446 133.695 91.2275C131.397 91.035 127.949 87.3782 124.31 87.3782C120.479 87.3782 117.414 90.4576 117.414 94.3069C117.414 98.1561 120.479 101.236 124.31 101.236C127.757 101.428 131.014 97.9637 133.695 97.5787ZM183.113 87.5707C183.113 86.9933 183.113 83.144 183.113 83.144H176.983C176.983 83.144 176.792 79.4872 177.175 77.9475C176.792 77.9475 172.386 77.9475 172.003 77.9475C172.386 79.2948 172.195 83.144 172.195 83.144H168.555C168.555 83.144 168.555 86.8008 168.555 87.5707C170.471 87.1857 172.195 87.1857 172.195 87.1857V98.926C172.195 103.16 174.493 105.855 179.09 105.855C180.622 105.855 181.772 105.47 183.113 104.892V99.8883C182.346 100.851 181.389 101.236 180.239 101.236C178.324 101.236 177.175 100.273 177.175 98.1561V87.1857C176.983 87.1857 177.366 86.9933 183.113 87.5707ZM210.503 94.4993C210.503 87.7631 205.523 82.7591 198.819 82.7591C192.115 82.7591 187.135 87.7631 187.135 94.3069C187.135 101.043 192.306 106.047 199.393 106.047C203.607 106.047 207.247 104.315 209.354 101.428L205.714 97.9637C204.948 100.273 202.267 101.62 199.393 101.62C195.754 101.62 193.073 99.5034 192.306 96.424H198.627H210.12C210.311 95.6541 210.503 95.0767 210.503 94.4993ZM198.819 87.1857C202.075 87.1857 204.565 89.3028 205.331 92.3822H198.819H192.306C193.073 89.3028 195.563 87.1857 198.819 87.1857ZM234.637 105.47C234.828 105.085 235.02 103.93 235.02 102.005L233.871 102.775C233.296 103.16 232.913 103.353 231.955 104.122C229.274 105.855 226.401 106.047 225.634 106.047H225.443C219.122 106.047 213.95 100.851 213.95 94.4993C213.95 88.148 219.122 82.9515 225.443 82.9515C226.018 82.9515 229.082 82.9515 231.955 84.8762C232.913 85.4536 233.296 85.8385 233.871 86.2234L235.02 86.9933C235.02 86.9933 235.02 86.9933 235.211 86.9933C235.211 81.2194 235.403 79.1023 235.02 76.2153C235.403 76.2153 239.234 76.2153 239.808 76.2153C239.234 79.1023 239.425 103.16 240.192 105.662C239.617 105.47 235.211 105.47 234.637 105.47ZM235.02 97.5787C235.02 95.6541 235.02 93.537 235.02 91.2275C232.721 91.2275 229.274 87.3782 225.443 87.3782C221.612 87.3782 218.547 90.4576 218.547 94.3069C218.547 98.1561 221.612 101.236 225.443 101.236C229.082 101.428 232.53 97.7712 235.02 97.5787ZM9.38547 100.273C6.32083 100.273 5.17159 98.3486 5.17159 96.039C5.17159 93.7295 7.08699 91.8048 9.38547 91.8048L17.0471 91.9973C18.9625 91.9973 20.4948 90.2651 20.8779 88.3405C21.0694 87.7631 21.0694 86.6083 21.0694 86.6083C21.0694 86.6083 18.1963 86.6083 17.4302 86.6083C11.684 86.6083 10.7263 84.1063 10.3432 81.7968C10.1516 80.4495 10.9178 77.5626 14.7486 77.7551C18.1963 77.7551 21.4525 78.7174 24.9002 78.5249C26.4326 78.5249 27.7733 77.7551 28.1564 76.4078L28.9226 73.1359C24.1341 74.0983 20.4948 73.1359 15.3232 73.1359C9.96009 73.1359 5.74621 76.0229 5.17159 81.4118C4.98005 83.5289 5.93775 85.4536 7.47007 86.9933C3.25618 87.7631 0 91.4199 0 96.039C0 101.236 4.21389 105.47 9.38547 105.47H28.5395V99.6958C28.731 99.6958 27.0072 100.273 9.38547 100.273Z" fill="#112361"/>
<path d="M131.014 11.1629C131.014 17.3217 126.034 22.3257 119.904 22.3257C113.775 22.3257 108.795 17.3217 108.795 11.1629C108.795 5.00404 113.775 0 119.904 0C126.034 0 131.014 5.00404 131.014 11.1629ZM119.904 43.4966C113.775 43.4966 108.795 48.5007 108.795 54.6595C108.795 60.8183 113.775 65.8223 119.904 65.8223C126.034 65.8223 131.014 60.8183 131.014 54.6595C131.014 48.5007 126.034 43.4966 119.904 43.4966ZM136.76 21.1709C136.76 21.1709 133.121 20.9785 130.247 23.0956C128.332 24.4428 128.14 24.4428 126.417 25.79C124.693 26.9448 122.203 27.5222 120.096 27.5222C117.797 27.5222 115.499 26.9448 113.775 25.79C111.86 24.4428 111.668 24.4428 109.944 23.0956C107.071 21.1709 103.432 21.1709 103.432 21.1709C96.9194 21.1709 91.7478 26.3674 91.7478 32.9112C91.7478 39.4549 96.9194 44.6514 103.432 44.6514C103.432 44.6514 107.071 44.8439 109.944 42.7268C111.86 41.3795 112.051 41.3795 113.775 40.0323C115.499 38.8775 117.989 38.3001 120.096 38.3001C122.394 38.3001 124.693 38.8775 126.417 40.0323C128.332 41.3795 128.524 41.3795 130.247 42.7268C133.121 44.6514 136.76 44.6514 136.76 44.6514C143.272 44.6514 148.444 39.4549 148.444 32.9112C148.444 26.3674 143.272 21.1709 136.76 21.1709Z" fill="url(#paint0_linear_49_59)"/>
</g>
<defs>
<linearGradient id="paint0_linear_49_59" x1="106.934" y1="56.4191" x2="146.259" y2="16.3886" gradientUnits="userSpaceOnUse">
<stop stop-color="#112361"/>
<stop offset="1" stop-color="#5D7AE2"/>
</linearGradient>
<clipPath id="clip0_49_59">
<rect width="240" height="143" fill="white"/>
</clipPath>
</defs>
</svg>